<?xml version="1.0" standalone="no"?>
<!DOCTYPE svg PUBLIC "-//W3C//DTD SVG 20010904//EN"
 "http://www.w3.org/TR/2001/REC-SVG-20010904/DTD/svg10.dtd">
<svg version="1.0" xmlns="http://www.w3.org/2000/svg"
 width="1024.000000pt" height="1024.000000pt" viewBox="0 0 1024.000000 1024.000000"
 preserveAspectRatio="xMidYMid meet">

<g transform="translate(0.000000,1024.000000) scale(0.100000,-0.100000)"
fill="#000000" stroke="none">
<path d="M8935 9311 c-565 -180 -1168 -540 -1912 -1143 l-72 -58 -62 36 c-298
175 -851 346 -1349 418 -251 36 -640 39 -900 6 -846 -107 -1565 -463 -2180
-1080 -637 -639 -988 -1362 -1086 -2240 -22 -198 -22 -642 0 -840 98 -877 453
-1608 1086 -2240 639 -637 1362 -988 2240 -1086 198 -22 642 -22 840 0 878 98
1601 449 2240 1086 617 615 973 1334 1080 2180 34 267 31 657 -6 895 -92 589
-344 1231 -699 1780 -83 129 -308 413 -334 422 -14 5 -205 -295 -264 -413
l-41 -82 50 -57 c379 -436 678 -1165 755 -1845 13 -115 7 -442 -11 -595 -73
-634 -305 -1175 -712 -1662 -93 -111 -334 -353 -438 -440 -380 -315 -807 -534
-1240 -638 -280 -67 -478 -89 -780 -90 -195 0 -259 4 -375 23 -279 44 -623
134 -875 227 -89 33 -355 148 -367 159 -7 6 217 271 329 389 326 344 786 666
1332 930 271 132 451 242 647 398 120 96 177 152 264 264 188 241 356 571 483
950 109 326 174 576 272 1060 89 440 147 631 273 897 190 403 471 791 845
1165 343 343 630 580 1095 903 144 100 167 127 167 192 0 79 -77 169 -144 167
-17 0 -85 -17 -151 -38z m-3425 -1295 c327 -44 602 -121 902 -253 l107 -47
-242 -246 c-893 -906 -1771 -2180 -2604 -3780 -131 -252 -412 -818 -523 -1055
-57 -121 -106 -224 -111 -229 -11 -12 -196 160 -292 272 -215 251 -398 552
-550 908 -141 328 -224 617 -268 934 -18 122 -18 527 -1 675 75 645 302 1176
715 1675 87 104 329 345 440 438 490 410 1063 653 1672 712 61 5 126 12 145
14 79 9 502 -3 610 -18z"/>
</g>
</svg>
